<?xml version="1.0" encoding="iso-8859-1"?>
<!-- Generator: Adobe Illustrator 19.0.0, SVG Export Plug-In . SVG Version: 6.00 Build 0)  -->
<svg version="1.1" id="Layer_1" xmlns="http://www.w3.org/2000/svg" xmlns:xlink="http://www.w3.org/1999/xlink" x="0px" y="0px"
	 viewBox="0 0 512.001 512.001" style="enable-background:new 0 0 512.001 512.001;" xml:space="preserve">
<path style="fill:#E0E0E0;" d="M433.637,97.575c18.713-18.713,18.713-49.053,0-67.766c-18.713-18.713-49.053-18.713-67.766,0
	l-6.049,9.924"/>
<path style="fill:#CCCCCC;" d="M381.844,45.781c15.948-15.948,40.288-18.175,58.732-6.939c-1.948-3.197-4.174-6.269-6.939-9.033
	c-18.713-18.713-49.053-18.713-67.765,0l-6.049,9.924l17.398,13.634L381.844,45.781z"/>
<circle style="fill:#29ABE2;" cx="256.006" cy="219.421" r="211.633"/>
<path style="fill:#C7B299;" d="M311.905,295.294l15.972,15.972l-7.987,15.972l15.972,15.972l7.987,15.972l31.792-15.972
	l31.792-23.959v-39.861h48.225c25.554-66.46,0-137.073,0-137.073h-31.944l-15.972-6.231h-15.973l-15.972,16.096l7.987,16.096H367.81
	l-15.972,23.577C351.836,191.855,362.96,266.843,311.905,295.294z"/>
<circle style="fill:#29ABE2;" cx="256.006" cy="215.434" r="71.88"/>
<g>
	<path style="fill:#C7B299;" d="M176.138,415.089l15.972-31.945l-15.972-23.959l-31.945-15.972l15.973-23.924l-15.973-39.897
		h-23.959l-16.023,15.904v23.959l-15.947,23.959C88.264,343.212,103.2,381.331,176.138,415.089z"/>
	<path style="fill:#C7B299;" d="M208.084,271.595l48.258-31.665h67.434l0,0C323.775,239.93,293.206,319.556,208.084,271.595z"/>
	<path style="fill:#C7B299;" d="M48.358,183.486l47.918-15.972l15.972-31.945l31.945-7.987l15.973-31.945l-23.959-7.987
		l-23.959-23.959C112.247,63.692,59.574,105.777,48.358,183.486z"/>
</g>
<path style="fill:#FF1D25;" d="M287.946,199.459c0,17.643-31.945,55.904-31.945,55.904s-31.945-38.261-31.945-55.904
	s14.302-31.945,31.945-31.945S287.946,181.816,287.946,199.459z"/>
<rect x="224.054" y="335.227" style="fill:#736357;" width="63.895" height="23.957"/>
<path style="fill:#FBB03B;" d="M256.001,119.596c-52.929,0-95.835,42.907-95.835,95.835s42.907,95.835,95.835,95.835
	s95.835-42.907,95.835-95.835C351.836,162.503,308.93,119.596,256.001,119.596z M256.001,287.308
	c-39.696,0-71.876-32.18-71.876-71.876s32.18-71.876,71.876-71.876s71.876,32.18,71.876,71.876S295.697,287.308,256.001,287.308z"/>
<rect x="223.628" y="359.184" style="fill:#F15A24;" width="64.383" height="23.957"/>
<polyline style="fill:#FBB03B;" points="239.207,383.234 239.207,431.059 239.207,503.693 272.437,503.693 272.437,431.059 
	272.437,383.234 "/>
<g>
	<rect x="248.55" y="192.162" style="fill:#FFFFFF;" width="15.577" height="15.577"/>
	<rect x="130.169" y="40.551" style="fill:#FFFFFF;" width="133.958" height="15.577"/>
	<rect x="279.703" y="40.551" style="fill:#FFFFFF;" width="32.191" height="15.577"/>
	<rect x="264.127" y="80.011" style="fill:#FFFFFF;" width="104.882" height="15.577"/>
</g>
<rect x="407.431" y="40.551" width="16.615" height="15.577"/>
<g>
	<rect x="48.132" y="216.046" style="fill:#FFFFFF;" width="40.499" height="15.577"/>
	<rect x="104.208" y="183.855" style="fill:#FFFFFF;" width="56.075" height="15.577"/>
	<rect x="96.939" y="248.238" style="fill:#FFFFFF;" width="31.153" height="15.577"/>
	<rect x="301.51" y="392.58" style="fill:#FFFFFF;" width="64.383" height="15.577"/>
</g>
<path d="M335.666,215.431c0-43.928-35.738-79.666-79.665-79.666s-79.665,35.738-79.665,79.666c0,43.927,35.738,79.665,79.665,79.665
	S335.666,259.358,335.666,215.431z M191.912,215.431c0-35.338,28.75-64.089,64.088-64.089c35.338,0,64.088,28.751,64.088,64.089
	c0,5.592-0.724,11.017-2.076,16.191h-35.106c6.932-11.148,12.829-23.245,12.829-32.164c0-21.909-17.825-39.734-39.734-39.734
	s-39.734,17.825-39.734,39.734c0,12.544,11.656,31.376,21.464,45.005l-27.056,16.234
	C199.089,249.094,191.912,233.086,191.912,215.431z M280.158,199.458c0,8.653-12.674,28.459-24.157,43.425
	c-11.483-14.966-24.157-34.772-24.157-43.425c0-13.32,10.837-24.157,24.157-24.157C269.321,175.302,280.158,186.138,280.158,199.458
	z M247.224,256.934c1.179,1.466,2.144,2.638,2.798,3.42l5.978,7.161l5.978-7.161c1.778-2.13,5.794-7.04,10.458-13.371v0.216h39.188
	c-11.059,19.288-31.843,32.32-55.625,32.32c-11.67,0-22.612-3.151-32.046-8.623L247.224,256.934z"/>
<path d="M440.843,101.298c9.44-10.294,14.617-23.551,14.617-37.606c0-14.88-5.794-28.868-16.316-39.391
	c-10.521-10.52-24.511-16.316-39.391-16.316s-28.868,5.794-39.39,16.316l-0.658,0.659l-0.525,0.862
	C328.406,9.354,293.277,0,256.001,0C135.009,0,36.576,98.433,36.576,219.425c0,55.723,20.913,108.846,58.888,149.584
	c35.819,38.425,83.642,62.504,135.436,68.407v74.585h48.806V437.57c52.331-5.625,100.692-29.791,136.832-68.561
	c37.975-40.738,58.888-93.861,58.888-149.584C475.425,175.967,462.726,135.42,440.843,101.298z M391.857,24.34v6.865h15.577v-6.908
	c7.792,1.503,14.961,5.284,20.696,11.02c7.58,7.58,11.754,17.657,11.754,28.375c0,0.248-0.013,0.494-0.018,0.742h-7.51v15.577h4.07
	c-1.266,2.841-2.867,5.537-4.782,8.039c-16.074-21.436-35.981-39.837-58.685-54.198C378.355,28.996,384.842,25.732,391.857,24.34z
	 M112.414,74.873L132,94.458l17.184,5.728l-10.355,20.709l-31.945,7.986l-16.132,32.263l-33.056,11.019
	C66.628,134.679,85.937,101.176,112.414,74.873z M172.212,405.32c-24.422-11.015-46.65-26.865-65.354-46.932
	c-3.878-4.159-7.551-8.465-11.041-12.891l15.663-23.919v-22.89l11.816-10.989h15.639l12.465,30.936l-18.613,27.748l38.025,18.925
	l12.298,18.42L172.212,405.32z M264.13,496.423h-17.653V391.542h17.653V496.423z M405.144,358.388
	c-33.193,35.608-77.472,57.957-125.438,63.512v-30.358h8.307v-15.577h-64.383v15.577h7.269v30.2
	c-15.192-1.865-30.002-5.426-44.202-10.553l14.413-28.556l-19.646-29.425L155.6,340.335l13.331-19.875l-19.479-48.34h-32.28
	l-21.268,19.781v25.028l-9.873,15.08c-22.015-33.162-33.877-72.136-33.877-112.585c0-10.094,0.749-20.014,2.172-29.718
	l47.473-15.825l15.813-31.627l31.945-7.986l21.59-43.18l-30.733-10.246l-16.527-16.526c35.606-30.375,81.752-48.742,132.113-48.742
	c82.325,0,153.403,49.058,185.55,119.472h-16.372l-15.972-6.231h-20.681l-22.182,22.353l4.881,9.838h-7.45l-11.447,16.221
	c-15.238-38.287-52.671-65.422-96.325-65.422c-57.139,0-103.623,46.486-103.623,103.623c0,54.281,41.954,98.942,95.137,103.273
	v8.732h-31.248v39.535h79.467v-39.535h-32.643v-8.629c16.833-1.143,32.576-6.321,46.264-14.576L318.27,313l-7.913,15.865
	l19.085,19.009l10.938,21.812l39.146-19.836l35.177-26.732v-35.419h33.415C438.886,313.698,424.377,337.755,405.144,358.388z
	 M344.048,215.431c0,48.549-39.498,88.047-88.047,88.047c-48.55,0-88.047-39.498-88.047-88.047s39.498-88.047,88.047-88.047
	C304.55,127.385,344.048,166.883,344.048,215.431z M280.158,343.014v8.382h-48.314v-8.382H280.158z M399.126,272.122v43.268
	l-27.902,21.204l-23.933,12.127l-5.062-10.096l-12.917-12.865l7.945-15.933l-15.017-14.772
	c22.829-19.023,37.384-47.655,37.384-79.624c0-6.593-0.626-13.042-1.809-19.296l0.156,0.11l13.873-19.661h24.495l-11.092-22.353
	l9.762-9.838h11.264l15.972,6.231h25.642c7.733,21.504,11.96,44.666,11.96,68.8c0,17.985-2.35,35.676-6.89,52.696h-53.831V272.122z"
	/>
<g>
</g>
<g>
</g>
<g>
</g>
<g>
</g>
<g>
</g>
<g>
</g>
<g>
</g>
<g>
</g>
<g>
</g>
<g>
</g>
<g>
</g>
<g>
</g>
<g>
</g>
<g>
</g>
<g>
</g>
</svg>
